<?xml version="1.0" encoding="utf-8"?>
<!-- Generator: Adobe Illustrator 17.0.0, SVG Export Plug-In . SVG Version: 6.00 Build 0)  -->
<!DOCTYPE svg PUBLIC "-//W3C//DTD SVG 1.1//EN" "http://www.w3.org/Graphics/SVG/1.1/DTD/svg11.dtd">
<svg version="1.1" id="Слой_1" xmlns="http://www.w3.org/2000/svg" xmlns:xlink="http://www.w3.org/1999/xlink" x="0px" y="0px"
	 width="417px" height="416.995px" viewBox="0 0 417 416.995" enable-background="new 0 0 417 416.995" xml:space="preserve">
<g>
	<path fill-rule="evenodd" clip-rule="evenodd" fill="#010202" d="M295.769,220.457c-4.226-8.487-15.929-15.549-31.482-3.295
		c-21.021,16.565-54.787,16.565-54.787,16.565s-33.767,0-54.788-16.565c-15.553-12.254-27.256-5.192-31.481,3.295
		c-7.367,14.798,0.956,21.951,19.738,34.008c16.042,10.299,38.085,14.146,52.319,15.584l-11.881,11.882
		c-16.738,16.736-32.893,32.893-44.102,44.103c-6.702,6.7-6.702,17.566,0,24.269l2.022,2.022c3.343,3.343,7.721,5.018,12.103,5.025
		h0.063c4.381-0.008,8.761-1.683,12.103-5.025l44.102-44.102c16.737,16.735,32.892,32.892,44.102,44.101
		c6.701,6.701,17.567,6.701,24.268,0l2.022-2.022c6.703-6.703,6.701-17.568,0-24.269l-44.102-44.103l-11.919-11.918
		c14.246-1.467,36.053-5.334,51.961-15.547C294.812,242.408,303.134,235.255,295.769,220.457L295.769,220.457z M209.5,99.666
		c20.335,0,36.82,16.486,36.82,36.82c0,20.335-16.485,36.819-36.82,36.819s-36.82-16.484-36.82-36.819
		C172.68,116.151,189.165,99.666,209.5,99.666L209.5,99.666z M209.5,211.325c41.333,0,74.841-33.507,74.841-74.84
		c0-41.332-33.508-74.839-74.841-74.839c-41.333,0-74.841,33.508-74.841,74.839C134.659,177.818,168.166,211.325,209.5,211.325
		L209.5,211.325z"/>
</g>
</svg>
